<svg width="60" height="60" viewBox="0 0 60 60" fill="none" xmlns="http://www.w3.org/2000/svg">
<rect width="60" height="60" rx="12" fill="#8D40D7"/>
<mask id="mask0_2016_94" style="mask-type:luminance" maskUnits="userSpaceOnUse" x="12" y="11" width="36" height="18">
<path d="M12 11H47.5799V28.7899H12V11Z" fill="white"/>
</mask>
<g mask="url(#mask0_2016_94)">
<path d="M23.9083 28.5472H14.0626C12.3747 28.5462 12.0162 28.531 12.0151 26.8612L12.0111 21.031C12.001 19.6653 13.0857 19.7469 14.0908 19.7469L23.3987 19.7418C23.2184 19.7116 23.0402 19.6008 22.868 19.5334L22.2798 19.2977C21.464 18.9653 20.6009 18.6179 19.8738 18.1153C17.0246 16.1444 17.3701 12.1239 20.9595 11.2084C24.4139 10.3272 27.0808 12.699 28.7597 15.521L29.3247 16.5281C29.4888 16.8423 29.6419 17.1656 29.8323 17.4647C29.8826 17.4164 29.9128 17.3398 29.9461 17.2774L30.6198 16.0336C31.9805 13.684 34.0612 11.0624 37.0443 11.0332C37.3193 11.0322 37.6053 11.0201 37.8782 11.0463C40.5552 11.3011 42.5654 13.6457 41.385 16.2672C40.6881 17.8132 39.2368 18.5313 37.7513 19.1265L36.1591 19.7479L45.4287 19.7469C46.3734 19.7479 47.6444 19.6119 47.6514 20.9403L47.6554 26.9076C47.6564 27.6025 47.6292 28.4142 46.6997 28.5401C46.5516 28.5603 46.3905 28.5472 46.2404 28.5472H32.9181L32.9221 21.0038L26.7545 20.9937L26.7535 28.5472H23.9083ZM22.0663 12.9971C20.048 13.1008 18.9331 14.8834 20.7077 16.3921C21.4912 17.0578 23.0885 17.5372 24.0534 17.8494L26.5319 18.6229L28.3306 19.1094C27.8724 18.5856 27.5219 17.9874 27.1362 17.4093C26.1734 15.9671 24.569 13.5248 22.8116 13.0434C22.595 12.984 22.2909 12.984 22.0663 12.9971ZM37.2608 12.9951C35.7844 13.1552 34.7037 14.5168 33.8366 15.5945L31.2976 19.1446L33.3532 18.5403C34.8327 18.0932 36.3313 17.6984 37.7513 17.075C38.4936 16.7497 39.1543 16.4244 39.5501 15.6781C40.5008 13.8834 38.8632 12.8712 37.2608 12.9951Z" fill="white"/>
</g>
<mask id="mask1_2016_94" style="mask-type:luminance" maskUnits="userSpaceOnUse" x="13" y="30" width="33" height="20">
<path d="M13.969 30.0793H45.6815V49.0003H13.969V30.0793Z" fill="white"/>
</mask>
<g mask="url(#mask1_2016_94)">
<path d="M45.5435 31.2363L45.5284 46.8639C45.4468 47.9335 44.6713 48.8489 43.5786 48.9537C43.0941 49 42.5785 48.9668 42.091 48.9668H17.5433C17.0316 48.9658 16.4948 49 15.9862 48.9527C15.0194 48.863 14.2409 47.9465 14.1311 47.0139C14.1019 46.7672 14.1221 46.4953 14.1231 46.2455V31.2665C14.1231 30.8757 14.1059 30.4769 14.1422 30.0881L26.7464 30.1012C26.7666 30.2865 26.7525 30.4849 26.7525 30.6723L26.7545 47.731H32.9181L32.9141 30.0972L45.5344 30.0932C45.5737 30.4628 45.5425 30.8636 45.5435 31.2363Z" fill="white"/>
</g>
</svg>
